<svg xmlns="http://www.w3.org/2000/svg" viewBox="0 0 512 512">
  <rect width="512" height="512" rx="96" fill="#1a1a1e"/>
  <rect x="48" y="48" width="416" height="416" rx="64" fill="#252528"/>
  <!-- 6 rows × 7 cols heatmap grid echoing the checklist -->
  <g transform="translate(96, 88)">
    <!-- Row 1 - mostly filled -->
    <rect x="0"   y="0" width="38" height="38" rx="6" fill="#d4a44b"/>
    <rect x="52"  y="0" width="38" height="38" rx="6" fill="#d4a44b"/>
    <rect x="104" y="0" width="38" height="38" rx="6" fill="#d4a44b"/>
    <rect x="156" y="0" width="38" height="38" rx="6" fill="#3a3a3e"/>
    <rect x="208" y="0" width="38" height="38" rx="6" fill="#d4a44b"/>
    <rect x="260" y="0" width="38" height="38" rx="6" fill="#d4a44b"/>
    <!-- Row 2 -->
    <rect x="0"   y="56" width="38" height="38" rx="6" fill="#d4a44b"/>
    <rect x="52"  y="56" width="38" height="38" rx="6" fill="#3a3a3e"/>
    <rect x="104" y="56" width="38" height="38" rx="6" fill="#d4a44b"/>
    <rect x="156" y="56" width="38" height="38" rx="6" fill="#d4a44b"/>
    <rect x="208" y="56" width="38" height="38" rx="6" fill="#d4a44b"/>
    <rect x="260" y="56" width="38" height="38" rx="6" fill="#d4a44b"/>
    <!-- Row 3 -->
    <rect x="0"   y="112" width="38" height="38" rx="6" fill="#d4a44b"/>
    <rect x="52"  y="112" width="38" height="38" rx="6" fill="#d4a44b"/>
    <rect x="104" y="112" width="38" height="38" rx="6" fill="#d4a44b"/>
    <rect x="156" y="112" width="38" height="38" rx="6" fill="#d4a44b"/>
    <rect x="208" y="112" width="38" height="38" rx="6" fill="#3a3a3e"/>
    <rect x="260" y="112" width="38" height="38" rx="6" fill="#d4a44b"/>
    <!-- Row 4 -->
    <rect x="0"   y="168" width="38" height="38" rx="6" fill="#3a3a3e"/>
    <rect x="52"  y="168" width="38" height="38" rx="6" fill="#d4a44b"/>
    <rect x="104" y="168" width="38" height="38" rx="6" fill="#d4a44b"/>
    <rect x="156" y="168" width="38" height="38" rx="6" fill="#d4a44b"/>
    <rect x="208" y="168" width="38" height="38" rx="6" fill="#d4a44b"/>
    <rect x="260" y="168" width="38" height="38" rx="6" fill="#d4a44b"/>
    <!-- Row 5 -->
    <rect x="0"   y="224" width="38" height="38" rx="6" fill="#d4a44b"/>
    <rect x="52"  y="224" width="38" height="38" rx="6" fill="#d4a44b"/>
    <rect x="104" y="224" width="38" height="38" rx="6" fill="#3a3a3e"/>
    <rect x="156" y="224" width="38" height="38" rx="6" fill="#d4a44b"/>
    <rect x="208" y="224" width="38" height="38" rx="6" fill="#d4a44b"/>
    <rect x="260" y="224" width="38" height="38" rx="6" fill="#d4a44b"/>
    <!-- Row 6 -->
    <rect x="0"   y="280" width="38" height="38" rx="6" fill="#d4a44b"/>
    <rect x="52"  y="280" width="38" height="38" rx="6" fill="#d4a44b"/>
    <rect x="104" y="280" width="38" height="38" rx="6" fill="#d4a44b"/>
    <rect x="156" y="280" width="38" height="38" rx="6" fill="#d4a44b"/>
    <rect x="208" y="280" width="38" height="38" rx="6" fill="#d4a44b"/>
    <rect x="260" y="280" width="38" height="38" rx="6" fill="#6ec77a"/>
  </g>
</svg>
